<svg width="600" height="150" viewBox="0 0 600 150" fill="none" xmlns="http://www.w3.org/2000/svg">
<rect x="0.25" y="0.25" width="599.5" height="149.5" rx="19.75" fill="#F2F4F9"/>
<rect x="0.25" y="0.25" width="599.5" height="149.5" rx="19.75" stroke="#1D2126" stroke-width="0.5"/>
<path d="M135 112.036C135 115.13 132.469 117.661 129.375 117.661H50.625C47.5312 117.661 45 115.13 45 112.036V78.2859C45 75.1922 46.7887 70.8722 48.9787 68.6822L86.0212 31.6397C88.2075 29.4534 91.7888 29.4534 93.975 31.6397L131.021 68.6859C133.207 70.8722 135 75.1959 135 78.2897V112.04V112.036Z" fill="#F2F4F9"/>
<path d="M131.021 68.6822L93.9788 31.6397C91.7925 29.4534 88.2113 29.4534 86.025 31.6397L48.9787 68.6822C46.7925 70.8684 45 75.1922 45 78.2859V112.036C45 115.13 47.5312 117.661 50.625 117.661H85.2262L69.99 102.425C69.2062 102.695 68.37 102.848 67.5 102.848C63.2625 102.848 59.8125 99.3984 59.8125 95.1609C59.8125 90.9234 63.2625 87.4734 67.5 87.4734C71.7375 87.4734 75.1875 90.9234 75.1875 95.1609C75.1875 96.0347 75.0338 96.8709 74.7638 97.6547L86.625 109.516V66.0609C84.075 64.8084 82.3125 62.1909 82.3125 59.1647C82.3125 54.9272 85.7625 51.4772 90 51.4772C94.2375 51.4772 97.6875 54.9272 97.6875 59.1647C97.6875 62.1909 95.925 64.8084 93.375 66.0609V96.5372L105.173 84.7397C104.94 84.0047 104.812 83.2247 104.812 82.4147C104.812 78.1772 108.262 74.7272 112.5 74.7272C116.738 74.7272 120.188 78.1772 120.188 82.4147C120.188 86.6522 116.738 90.1022 112.5 90.1022C111.562 90.1022 110.67 89.9259 109.841 89.6184L93.375 106.085V117.665H129.375C132.469 117.665 135 115.133 135 112.04V78.2897C135 75.1959 133.211 70.8759 131.021 68.6859V68.6822Z" fill="#18BCF2"/>
<path d="M187.565 36.3164L182.186 54H178.705L175.272 42.7734L171.745 54H168.241L162.944 36.3164H166.893L170.045 47.7305L173.303 36.3164H177.287L180.463 47.7891L183.721 36.3164H187.565ZM197.73 36C198.995 36 200.167 36.2305 201.245 36.6914C202.323 37.1445 203.237 37.7734 203.987 38.5781C204.737 39.3828 205.32 40.3516 205.734 41.4844C206.155 42.6094 206.366 43.8281 206.366 45.1406C206.382 46.4375 206.179 47.6562 205.757 48.7969C205.335 49.9375 204.745 50.9141 203.987 51.7266C203.23 52.5312 202.308 53.1641 201.222 53.625C200.136 54.0859 198.964 54.3086 197.706 54.293C196.042 54.3164 194.546 53.9336 193.218 53.1445C191.898 52.3555 190.878 51.2617 190.159 49.8633C189.441 48.4648 189.093 46.8984 189.116 45.1641C189.101 43.8672 189.304 42.6484 189.726 41.5078C190.148 40.3672 190.734 39.3906 191.484 38.5781C192.241 37.7656 193.159 37.1289 194.237 36.668C195.323 36.207 196.487 35.9844 197.73 36ZM197.753 50.7891C199.245 50.7891 200.425 50.2852 201.292 49.2773C202.167 48.2617 202.605 46.8828 202.605 45.1406C202.605 43.3828 202.171 42 201.304 40.9922C200.437 39.9844 199.253 39.4805 197.753 39.4805C196.253 39.4805 195.07 39.9844 194.202 40.9922C193.335 42 192.902 43.3828 192.902 45.1406C192.902 46.8984 193.335 48.2812 194.202 49.2891C195.07 50.2891 196.253 50.7891 197.753 50.7891ZM223.797 54H219.789L217.07 47.6133H213.812V54H210.238V36.3164H217.047C219.234 36.3242 220.887 36.8125 222.004 37.7812C223.121 38.7422 223.68 40.1406 223.68 41.9766C223.68 43.1719 223.418 44.207 222.895 45.082C222.379 45.9492 221.641 46.5938 220.68 47.0156L223.797 54ZM219.883 41.9766C219.883 41.2109 219.645 40.6094 219.168 40.1719C218.691 39.7266 217.984 39.5039 217.047 39.5039H213.812V44.4961H217.047C217.984 44.4961 218.691 44.2734 219.168 43.8281C219.645 43.375 219.883 42.7578 219.883 41.9766ZM235.591 45.1641L242.294 54H237.63L233.364 48.0234L231.372 50.6133V54.0703H227.774V36.3164H231.372V44.9531L237.852 36.3164H242.505L235.591 45.1641ZM249.951 36C251.607 36 252.982 36.4023 254.076 37.207C255.177 38.0039 255.853 39.082 256.103 40.4414L252.716 41.332C252.576 40.668 252.255 40.1641 251.755 39.8203C251.255 39.4688 250.63 39.293 249.88 39.293C249.091 39.293 248.474 39.4727 248.029 39.832C247.584 40.1914 247.361 40.668 247.361 41.2617C247.361 42.1914 247.97 42.8125 249.189 43.125L251.978 43.8281C253.525 44.2188 254.673 44.8477 255.423 45.7148C256.181 46.582 256.56 47.6484 256.56 48.9141C256.56 50.5391 255.97 51.8477 254.791 52.8398C253.619 53.8242 252.056 54.3164 250.103 54.3164C248.306 54.3164 246.795 53.8906 245.568 53.0391C244.349 52.1797 243.634 51.043 243.423 49.6289L246.81 48.7734C246.912 49.4844 247.267 50.0352 247.877 50.4258C248.494 50.8086 249.275 51 250.22 51C251.095 51 251.775 50.832 252.259 50.4961C252.744 50.1602 252.986 49.6953 252.986 49.1016C252.986 48.1719 252.392 47.5469 251.205 47.2266L248.369 46.5586C246.838 46.1836 245.689 45.5508 244.923 44.6602C244.166 43.7695 243.787 42.6836 243.787 41.4023C243.787 39.7773 244.345 38.4727 245.463 37.4883C246.588 36.4961 248.084 36 249.951 36ZM291.023 36.3164L285.644 54H282.163L278.73 42.7734L275.202 54H271.698L266.402 36.3164H270.351L273.503 47.7305L276.761 36.3164H280.745L283.921 47.7891L287.179 36.3164H291.023ZM294.355 54V36.3164H297.93V54H294.355ZM314.798 39.7148H309.899V54H306.325V39.7148H301.427V36.3164H314.798V39.7148ZM318.295 36.3164H321.869V43.4648L328.877 43.4883V36.3164H332.474V54H328.877V46.6758L321.869 46.6289V54H318.295V36.3164Z" fill="#18BCF2"/>
<path d="M165.011 68.5012H171.975V85.6574L190.076 85.7137V68.5012H197.107V109.564H190.076V91.9068L171.975 91.8505V109.569H165L165.011 68.5012Z" fill="#1D2126"/>
<path d="M217.538 81.0533C221.785 81.0533 225.245 82.4173 227.919 85.1455C230.592 87.8736 231.929 91.3808 231.929 95.667C231.929 99.9327 230.592 103.43 227.919 106.158C225.245 108.886 221.785 110.25 217.538 110.25C213.251 110.25 209.772 108.886 207.1 106.158C204.429 103.43 203.092 99.9327 203.09 95.667C203.09 91.3545 204.427 87.8436 207.1 85.1342C209.774 82.4248 213.253 81.0645 217.538 81.0533ZM217.538 104.262C219.808 104.262 221.653 103.461 223.073 101.86C224.492 100.259 225.201 98.1758 225.199 95.6108C225.199 93.0495 224.49 90.9758 223.073 89.3895C221.655 87.8033 219.81 87.012 217.538 87.0158C215.213 87.0158 213.338 87.807 211.913 89.3895C210.488 90.972 209.773 93.0458 209.77 95.6108C209.77 98.1758 210.484 100.259 211.913 101.86C213.341 103.461 215.216 104.262 217.538 104.262Z" fill="#1D2126"/>
<path d="M279.379 91.9068V109.566H272.91V92.9193C272.91 90.9993 272.416 89.4993 271.428 88.4193C270.44 87.3393 269.093 86.7984 267.389 86.7965C265.578 86.7965 264.131 87.3871 263.049 88.5684C261.967 89.7496 261.427 91.4024 261.429 93.5268V109.558H254.907V92.9193C254.907 90.9993 254.426 89.4993 253.464 88.4193C252.502 87.3393 251.17 86.7984 249.468 86.7965C247.656 86.7965 246.201 87.3871 245.103 88.5684C244.004 89.7496 243.455 91.4024 243.455 93.5268V109.558H236.809V81.824H242.996L243.215 84.4874C244.828 82.1249 247.453 80.9437 251.09 80.9437C253.215 80.9437 255.055 81.3834 256.611 82.2627C258.166 83.1408 259.405 84.4859 260.152 86.1074C260.824 84.504 262.012 83.1707 263.527 82.319C265.091 81.4021 266.954 80.9437 269.116 80.9437C272.266 80.9437 274.765 81.914 276.614 83.8546C278.463 85.7952 279.384 88.4793 279.379 91.9068Z" fill="#1D2126"/>
<path d="M311.61 98.1392H290.353C290.572 100.226 291.36 101.82 292.716 102.92C294.071 104.021 295.792 104.569 297.879 104.563C301.266 104.563 303.637 103.157 304.992 100.344L310.541 102.541C309.545 104.919 307.818 106.92 305.611 108.253C303.361 109.629 300.784 110.316 297.879 110.315C293.777 110.315 290.449 108.973 287.895 106.29C285.341 103.607 284.063 100.086 284.062 95.7289C284.062 91.3714 285.349 87.8286 287.923 85.1005C290.497 82.3724 293.861 81.0083 298.014 81.0083C302.098 81.0083 305.385 82.3536 307.875 85.0442C310.365 87.7349 311.61 91.2786 311.61 95.6755V98.1392ZM290.463 93.4677H304.854C304.725 91.2177 304.043 89.5011 302.81 88.318C301.576 87.1349 299.914 86.5499 297.823 86.563C295.761 86.563 294.073 87.1621 292.761 88.3602C291.448 89.5583 290.682 91.2608 290.463 93.4677Z" fill="#1D2126"/>
<path d="M354.43 100.007H338.804L335.429 109.569H328.232L343.062 68.5068H350.259L365.118 109.569H357.758L354.43 100.007ZM352.4 94.1005L346.659 77.6755L340.863 94.1005H352.4Z" fill="#1D2126"/>
<path d="M378.148 104.948C379.521 104.948 380.605 104.678 381.402 104.138C381.793 103.876 382.109 103.517 382.319 103.096C382.528 102.675 382.624 102.206 382.598 101.736C382.598 100.255 381.6 99.2661 379.605 98.7692L375.786 97.7539C370.536 96.3251 367.911 93.6242 367.911 89.6511C367.911 87.1067 368.835 85.0283 370.684 83.4158C372.533 81.8033 375.023 80.9979 378.154 80.9998C380.955 80.9998 383.299 81.6401 385.185 82.9208C386.096 83.5135 386.874 84.2878 387.472 85.1952C388.069 86.1026 388.473 87.1235 388.659 88.1942L382.699 89.6004C382.649 89.1272 382.5 88.6698 382.261 88.2583C382.022 87.8467 381.699 87.4904 381.312 87.2126C380.45 86.6061 379.413 86.297 378.359 86.3323C377.169 86.3323 376.208 86.6304 375.476 87.2267C375.124 87.5002 374.841 87.8528 374.65 88.2558C374.459 88.6588 374.365 89.1011 374.377 89.547C374.369 89.9079 374.438 90.2662 374.581 90.598C374.723 90.9298 374.934 91.2274 375.201 91.4708C375.752 91.9826 376.603 92.3942 377.754 92.7054L381.518 93.6392C384.026 94.3179 385.94 95.3436 387.258 96.7161C387.907 97.3897 388.415 98.1858 388.753 99.0579C389.091 99.9299 389.252 100.861 389.227 101.795C389.227 104.398 388.247 106.467 386.288 108.003C384.328 109.538 381.627 110.308 378.185 110.312C374.997 110.312 372.443 109.611 370.521 108.211C369.591 107.552 368.809 106.708 368.222 105.732C367.636 104.755 367.259 103.668 367.115 102.538L373.184 101.466C373.221 101.977 373.372 102.474 373.626 102.918C373.881 103.363 374.233 103.744 374.655 104.034C375.544 104.645 376.703 104.948 378.148 104.948Z" fill="#1D2126"/>
<path d="M403.348 104.948C404.723 104.948 405.806 104.667 406.605 104.138C406.995 103.876 407.31 103.516 407.519 103.095C407.728 102.674 407.824 102.206 407.798 101.736C407.798 100.255 406.8 99.2661 404.805 98.7692L400.988 97.7539C395.738 96.3251 393.113 93.6242 393.113 89.6511C393.113 87.1067 394.038 85.0283 395.887 83.4158C397.735 81.8033 400.225 80.9979 403.357 80.9998C406.158 80.9998 408.502 81.6401 410.388 82.9208C411.298 83.5139 412.077 84.2882 412.675 85.1955C413.273 86.1028 413.678 87.1236 413.864 88.1942L407.902 89.6004C407.852 89.1272 407.703 88.6698 407.464 88.2583C407.225 87.8467 406.901 87.4904 406.515 87.2126C405.652 86.6061 404.616 86.297 403.562 86.3323C402.371 86.3323 401.41 86.6304 400.679 87.2267C400.327 87.5005 400.044 87.8531 399.853 88.2561C399.662 88.6591 399.569 89.1012 399.579 89.547C399.572 89.9079 399.641 90.2662 399.783 90.598C399.925 90.9298 400.137 91.2274 400.403 91.4708C400.966 91.9826 401.81 92.3933 402.96 92.7054L406.723 93.6392C409.228 94.3179 411.142 95.3436 412.463 96.7161C413.112 97.3901 413.62 98.1862 413.958 99.0582C414.295 99.9302 414.457 100.861 414.432 101.795C414.432 104.398 413.453 106.467 411.493 108.003C409.534 109.538 406.833 110.308 403.39 110.312C400.203 110.312 397.648 109.611 395.726 108.211C394.797 107.552 394.014 106.708 393.428 105.732C392.842 104.755 392.465 103.668 392.32 102.538L398.393 101.466C398.428 101.977 398.579 102.473 398.833 102.918C399.087 103.363 399.439 103.744 399.861 104.034C400.744 104.645 401.903 104.948 403.348 104.948Z" fill="#1D2126"/>
<path d="M418.662 72.2192C418.652 71.6639 418.754 71.1123 418.962 70.5971C419.169 70.0819 419.478 69.6137 419.87 69.2202C420.262 68.8267 420.729 68.5159 421.243 68.3064C421.758 68.0969 422.309 67.9929 422.864 68.0005C423.415 67.992 423.961 68.0973 424.47 68.3097C424.978 68.5222 425.437 68.8372 425.817 69.2352C426.602 70.0255 427.043 71.0941 427.043 72.208C427.043 73.3218 426.602 74.3905 425.817 75.1808C425.439 75.583 424.981 75.902 424.472 76.1175C423.964 76.333 423.416 76.4402 422.864 76.4323C422.31 76.4396 421.76 76.3321 421.25 76.1167C420.739 75.9014 420.279 75.5827 419.897 75.1808C419.502 74.796 419.189 74.3352 418.977 73.8263C418.765 73.3173 418.658 72.7706 418.662 72.2192ZM426.189 81.8323V109.572H419.54V81.8239L426.189 81.8323Z" fill="#1D2126"/>
<path d="M442.27 104.948C443.643 104.948 444.727 104.678 445.524 104.138C445.915 103.876 446.23 103.517 446.44 103.096C446.649 102.674 446.746 102.206 446.72 101.736C446.72 100.255 445.721 99.2661 443.724 98.7692L439.908 97.7539C434.658 96.3251 432.033 93.6242 432.033 89.6511C432.033 87.1067 432.957 85.0283 434.806 83.4158C436.655 81.8033 439.146 80.9979 442.279 80.9998C445.08 80.9998 447.424 81.6401 449.31 82.9208C450.22 83.5144 450.998 84.289 451.595 85.1962C452.193 86.1034 452.597 87.1239 452.783 88.1942L446.824 89.6004C446.774 89.1272 446.625 88.6698 446.386 88.2583C446.147 87.8467 445.824 87.4904 445.437 87.2126C444.574 86.6068 443.538 86.2979 442.484 86.3323C441.293 86.3323 440.332 86.6304 439.598 87.2267C439.247 87.5008 438.965 87.8535 438.774 88.2565C438.584 88.6594 438.49 89.1014 438.502 89.547C438.494 89.9079 438.563 90.2662 438.705 90.598C438.848 90.9298 439.059 91.2274 439.326 91.4708C439.875 91.9826 440.726 92.3942 441.879 92.7054L445.642 93.6392C448.151 94.3179 450.065 95.3436 451.383 96.7161C452.031 97.3897 452.54 98.1858 452.878 99.0579C453.216 99.9299 453.377 100.861 453.351 101.795C453.351 104.398 452.372 106.467 450.412 108.003C448.453 109.538 445.752 110.308 442.31 110.312C439.122 110.312 436.568 109.611 434.648 108.211C433.718 107.553 432.935 106.709 432.349 105.733C431.762 104.756 431.386 103.668 431.242 102.538L437.312 101.466C437.348 101.977 437.498 102.473 437.753 102.918C438.007 103.363 438.358 103.744 438.78 104.034C439.663 104.645 440.822 104.948 442.27 104.948Z" fill="#1D2126"/>
<path d="M473.21 109.564C471.626 109.945 470.005 110.157 468.376 110.196C465.574 110.196 463.391 109.427 461.825 107.887C460.26 106.348 459.477 104.06 459.477 101.022V87.4545H455.219V81.8295H459.477V73.1727H466.069V81.8239H472.468V87.4489H466.069V99.8239C466.069 102.824 467.232 104.324 469.557 104.324C470.519 104.283 471.469 104.089 472.369 103.747L473.21 109.564Z" fill="#1D2126"/>
<path d="M495.472 109.564C495.231 108.525 495.075 107.469 495.005 106.405C494.142 107.644 492.96 108.626 491.585 109.249C489.979 109.981 488.228 110.342 486.463 110.306C483.422 110.306 480.985 109.496 479.151 107.876C477.317 106.256 476.402 104.063 476.406 101.298C476.406 98.5864 477.308 96.4667 479.111 94.9386C480.915 93.4104 483.382 92.6454 486.511 92.6436H494.85V91.5748C494.85 89.8348 494.342 88.5345 493.326 87.6739C492.309 86.8133 490.886 86.3829 489.056 86.3829C485.816 86.3829 483.49 87.7376 482.079 90.447L477.247 87.6176C479.59 83.2058 483.646 80.9998 489.414 80.9998C492.909 80.9998 495.774 81.897 498.009 83.6914C500.244 85.4858 501.369 88.4061 501.384 92.4523V103.494C501.384 106.624 501.548 108.647 501.876 109.564H495.472ZM494.909 97.2308H488.069C486.515 97.2308 485.306 97.5879 484.444 98.3023C484.017 98.6597 483.678 99.1108 483.454 99.6207C483.23 100.13 483.127 100.685 483.153 101.241C483.153 102.541 483.593 103.53 484.472 104.209C485.352 104.886 486.604 105.224 488.235 105.224C490.193 105.224 491.795 104.606 493.042 103.37C494.289 102.135 494.911 100.299 494.909 97.8636V97.2308Z" fill="#1D2126"/>
<path d="M533.305 92.4524V109.564H526.687V93.8755C526.687 91.2374 526.065 89.4337 524.82 88.4643C523.645 87.4993 522.164 86.9838 520.643 87.0102C519.76 86.9839 518.881 87.1329 518.056 87.4486C517.231 87.7644 516.477 88.2405 515.837 88.8496C514.558 90.0759 513.918 91.8243 513.916 94.0949V109.564H507.27V81.824H513.502L513.722 84.8165C514.583 83.5846 515.773 82.619 517.156 82.0293C518.701 81.3341 520.378 80.9828 522.072 80.9999C525.661 80.9999 528.43 81.9927 530.38 83.9784C532.33 85.964 533.305 88.7887 533.305 92.4524Z" fill="#1D2126"/>
<path d="M554.526 109.564C552.942 109.942 551.322 110.151 549.694 110.188C546.892 110.188 544.709 109.418 543.143 107.879C541.578 106.34 540.795 104.051 540.795 101.014V87.4545H536.537V81.8295H540.795V73.1727H547.385V81.8239H553.786V87.4489H547.385V99.8239C547.385 102.824 548.548 104.324 550.875 104.324C551.837 104.283 552.787 104.089 553.687 103.747L554.526 109.564Z" fill="#1D2126"/>
</svg>
